#N canvas 645 495 450 300 10;
#X obj 109 219 snapshot~;
#X floatatom 109 241 5 0 0 0 - - -, f 5;
#X obj 66 182 bng 15 250 50 0 empty empty empty 17 7 0 10 -262144 -1
-1;
#X obj 183 192 dac~;
#X obj 107 141 waveplayer~;
#X floatatom 109 102 5 0 0 0 - - -, f 5;
#X msg 166 97 -1;
#X msg 235 93 1;
#X obj 170 41 tgl 15 0 empty empty empty 17 7 0 10 -262144 -1 -1 0
1;
#X obj 170 63 sel 0 1;
#X msg 296 101 -1.04;
#X connect 0 0 1 0;
#X connect 2 0 0 0;
#X connect 4 0 0 0;
#X connect 4 0 3 0;
#X connect 4 0 3 1;
#X connect 5 0 4 0;
#X connect 6 0 4 0;
#X connect 7 0 4 0;
#X connect 8 0 9 0;
#X connect 9 0 6 0;
#X connect 9 1 7 0;
#X connect 10 0 4 0;
