#N canvas 651 477 802 420 10;
#X obj 260 255 dac~;
#X obj 235 197 waveplayer~;
#X floatatom 61 82 5 0 0 0 - - -, f 5;
#X msg 117 76 -1;
#X msg 186 72 1;
#X obj 121 20 tgl 15 0 empty empty empty 17 7 0 10 -262144 -1 -1 0
1;
#X obj 121 42 sel 0 1;
#X msg 234 72 -1.04;
#X msg 362 102 open test.wav;
#X msg 363 73 open sine440.wav;
#X msg 365 32 open asdf;
#X msg 361 139 open /usbdrive/test.wav;
#X connect 1 0 0 0;
#X connect 2 0 1 0;
#X connect 3 0 1 0;
#X connect 4 0 1 0;
#X connect 5 0 6 0;
#X connect 6 0 3 0;
#X connect 6 1 4 0;
#X connect 7 0 1 0;
#X connect 8 0 1 0;
#X connect 9 0 1 0;
#X connect 10 0 1 0;
#X connect 11 0 1 0;
