#N canvas 614 445 450 300 10;
#X obj 90 70 osc~ 440;
#X obj 95 144 writesf~;
#X msg 187 103 start;
#X msg 239 105 stop;
#X msg 161 70 open test.wav;
#X obj 43 98 adc~;
#X connect 2 0 1 0;
#X connect 3 0 1 0;
#X connect 4 0 1 0;
#X connect 5 0 1 0;
#X connect 5 1 1 0;
