#N canvas 450 413 802 420 10;
#X obj 229 263 dac~;
#X obj 235 197 waveplayer~;
#X floatatom 60 75 5 0 0 0 - - -, f 5;
#X msg 117 76 -1;
#X msg 181 74 1;
#X msg 361 28 open asdf;
#X msg 360 146 open /usbdrive/test.wav;
#X msg 361 80 open sounds/sine440.wav;
#X msg 361 109 open sounds/test.wav;
#X msg 361 53 open sounds/1.wav;
#X msg 229 72 2;
#X msg 273 75 -0.75;
#X connect 1 0 0 0;
#X connect 1 0 0 1;
#X connect 2 0 1 0;
#X connect 3 0 1 0;
#X connect 4 0 1 0;
#X connect 5 0 1 0;
#X connect 6 0 1 0;
#X connect 7 0 1 0;
#X connect 8 0 1 0;
#X connect 9 0 1 0;
#X connect 10 0 1 0;
#X connect 11 0 1 0;
