#N canvas 342 458 450 300 10;
#X obj 102 140 snapshot~;
#X floatatom 102 162 5 0 0 0 - - -, f 5;
#X obj 59 103 bng 15 250 50 0 empty empty empty 17 7 0 10 -262144 -1
-1;
#X obj 176 113 dac~;
#X obj 100 62 waveplayer~;
#X connect 0 0 1 0;
#X connect 2 0 0 0;
#X connect 4 0 0 0;
#X connect 4 0 3 0;
#X connect 4 0 3 1;
