#N canvas 602 256 997 490 10;
#X obj 259 446 dac~;
#X obj 267 259 waveplayer~;
#X floatatom 65 137 5 0 0 0 - - -, f 5;
#X msg 217 133 1;
#X msg 490 65 open asdf;
#X msg 489 183 open /usbdrive/test.wav;
#X msg 490 117 open sounds/sine440.wav;
#X msg 260 133 2;
#X msg 300 132 -0.75;
#X msg 489 95 open sounds/atest.wav;
#X msg 490 145 open sounds/bell.wav;
#X msg 97 68 1 1000;
#X msg 174 68 0 1000;
#X obj 116 133 line 0 5;
#X text 246 60 speed limited to -3 to 3;
#X obj 605 381 writesf~;
#X obj 593 288 adc~;
#X msg 489 211 open sounds/thing.wav;
#X msg 665 310 start;
#X msg 704 338 stop;
#X msg 490 35 close;
#X msg 184 134 -1;
#X msg 648 285 open sounds/thing.wav;
#X connect 1 0 0 0;
#X connect 1 0 0 1;
#X connect 2 0 1 0;
#X connect 3 0 1 0;
#X connect 4 0 1 0;
#X connect 5 0 1 0;
#X connect 6 0 1 0;
#X connect 7 0 1 0;
#X connect 8 0 1 0;
#X connect 9 0 1 0;
#X connect 10 0 1 0;
#X connect 11 0 13 0;
#X connect 12 0 13 0;
#X connect 13 0 1 0;
#X connect 16 0 15 0;
#X connect 16 1 15 0;
#X connect 17 0 1 0;
#X connect 18 0 15 0;
#X connect 19 0 15 0;
#X connect 20 0 1 0;
#X connect 21 0 1 0;
#X connect 22 0 15 0;
