#N canvas 443 238 997 490 10;
#X obj 399 446 dac~;
#X obj 419 336 waveplayer~;
#X floatatom 245 120 5 0 0 0 - - - 0;
#X msg 397 116 1;
#X msg 630 65 open asdf;
#X msg 629 183 open /usbdrive/test.wav;
#X msg 630 117 open sounds/sine440.wav;
#X msg 440 116 2;
#X msg 480 115 -0.75;
#X msg 629 95 open sounds/atest.wav;
#X obj 296 116 line 0 5;
#X obj 745 381 writesf~;
#X obj 733 288 adc~;
#X msg 629 211 open sounds/thing.wav;
#X msg 805 310 start;
#X msg 844 338 stop;
#X msg 630 35 close;
#X msg 364 117 -1;
#X msg 788 285 open sounds/thing.wav;
#X obj 123 275 +~, f 4;
#X obj 160 250 *~ 0.05;
#X obj 159 217 osc~ 3;
#X text 309 18 speed limited to -4 to 4;
#X msg 277 51 1 100;
#X msg 354 51 0 100;
#X obj 92 231 sig~ 1;
#X text 76 176 can also use a signal control speed, f 20;
#X text 224 229 add virbrato;
#X obj 320 407 snapshot~;
#X floatatom 316 432 5 0 0 0 - - - 0;
#X obj 280 334 bng 15 250 50 0 empty empty empty 17 7 0 10 #fcfcfc
#000000 #000000;
#X obj 484 382 print;
#X msg 630 144 open sounds/atest.wav;
#X connect 1 0 0 0;
#X connect 1 0 0 1;
#X connect 1 0 28 0;
#X connect 1 1 31 0;
#X connect 2 0 1 0;
#X connect 3 0 1 0;
#X connect 4 0 1 0;
#X connect 5 0 1 0;
#X connect 6 0 1 0;
#X connect 7 0 1 0;
#X connect 8 0 1 0;
#X connect 9 0 1 0;
#X connect 10 0 1 0;
#X connect 12 0 11 0;
#X connect 12 1 11 0;
#X connect 13 0 1 0;
#X connect 14 0 11 0;
#X connect 15 0 11 0;
#X connect 16 0 1 0;
#X connect 17 0 1 0;
#X connect 18 0 11 0;
#X connect 20 0 19 1;
#X connect 21 0 20 0;
#X connect 23 0 10 0;
#X connect 24 0 10 0;
#X connect 25 0 19 0;
#X connect 28 0 29 0;
#X connect 30 0 28 0;
#X connect 32 0 1 0;
